<svg version="1.1" id="Layer_1" xmlns="http://www.w3.org/2000/svg" xmlns:xlink="http://www.w3.org/1999/xlink" x="0px" y="0px"
	 width="100%" viewBox="0 0 512 512" enable-background="new 0 0 512 512" xml:space="preserve">
<path fill="#000000" opacity="1.000000" stroke="none" 
	d="
M377.428467,513.000000 
	C373.677551,484.960571 370.117950,456.986053 362.936676,429.566895 
	C359.949799,418.162567 354.600342,408.638611 345.758118,400.980560 
	C345.254364,400.544220 344.732727,400.127197 344.246063,399.672668 
	C342.789764,398.312378 341.766968,396.708710 343.272034,394.899597 
	C344.951904,392.880249 346.642059,394.263397 348.028320,395.433990 
	C356.847351,402.881073 364.222870,411.487305 366.958405,422.972260 
	C370.922241,439.614288 375.483124,456.134338 378.085785,473.078857 
	C378.424286,475.282806 378.395996,477.543060 378.778839,479.776520 
	C381.194763,461.239197 385.968445,442.842499 382.631409,423.983124 
	C381.423096,417.154144 376.778778,411.721619 373.110138,406.041840 
	C363.111816,390.562469 352.156097,375.860474 339.580872,362.242584 
	C333.210510,355.343994 325.984863,349.632629 319.227234,343.302704 
	C315.691376,339.990631 312.412415,339.837463 307.790955,342.900024 
	C295.319000,351.164795 282.261566,358.547668 269.852112,366.943756 
	C265.159058,370.119049 260.405426,373.196136 255.269638,375.624634 
	C249.727081,378.245544 247.147568,377.546417 244.385239,372.044769 
	C242.917587,369.121613 242.192856,365.825470 240.786301,361.675354 
	C238.912857,367.201904 236.901642,371.848145 235.782089,376.700134 
	C233.306671,387.428375 227.150497,395.285156 217.886871,400.788635 
	C210.151978,405.383850 204.884918,411.988708 200.717819,419.796936 
	C199.551544,421.982239 198.494431,426.419250 195.007355,424.577972 
	C190.988968,422.456085 194.654037,419.486755 195.788071,416.982758 
	C200.207687,407.223816 207.405365,400.010864 216.499161,394.595581 
	C225.550522,389.205566 228.781555,380.164307 231.691818,370.859467 
	C235.364807,359.115967 239.501190,347.488892 240.496445,335.092285 
	C240.871506,330.420654 241.121918,325.764862 238.323257,321.563843 
	C237.166702,319.827759 236.248398,317.743164 238.654099,316.381134 
	C241.066284,315.015350 242.352921,317.188995 243.450607,318.740753 
	C247.448578,324.392487 246.701065,330.864380 245.901489,337.103516 
	C244.610657,347.175934 244.915222,356.995636 248.330307,366.649902 
	C249.871902,371.007874 251.062347,371.543762 255.272629,369.117645 
	C266.392670,362.709808 276.706146,355.013336 287.720490,348.477478 
	C296.729523,343.131561 305.482239,337.398895 314.444000,331.995331 
	C317.581757,330.103363 318.955475,328.497284 316.743317,324.540771 
	C313.253143,318.298401 314.515320,311.237244 315.087830,304.453735 
	C315.628601,298.046875 314.415741,292.006042 312.137695,285.522736 
	C304.337128,289.360535 296.942291,292.998718 289.281921,296.819702 
	C289.016418,297.002533 289.058685,296.978394 289.058685,296.978394 
	C278.392731,299.582520 267.575195,301.314850 256.686249,302.652374 
	C254.348022,302.939575 251.430969,303.694550 251.032730,300.496582 
	C250.584229,296.895081 253.943939,297.107208 256.330170,296.800842 
	C270.360077,294.999878 284.420959,293.480682 297.247009,286.653137 
	C300.482727,284.930725 301.598755,283.533722 301.048859,279.456879 
	C300.078552,272.263336 299.818420,264.795929 303.217682,257.893677 
	C305.954620,252.336273 309.390167,251.044266 314.382843,254.645386 
	C321.531586,259.801636 328.880859,262.739929 337.670319,259.733978 
	C339.371979,259.152008 341.229279,258.791687 342.622925,256.524475 
	C337.897614,251.473038 335.095703,245.333298 337.004578,238.174774 
	C339.502258,228.808334 342.938263,219.763931 348.799042,211.891861 
	C351.879272,207.754562 355.055023,203.657791 358.532349,199.858170 
	C360.629974,197.566162 361.149414,195.867508 358.749084,193.595917 
	C357.409882,192.328506 356.085541,190.693939 357.962524,188.888626 
	C360.045258,186.885406 361.603882,188.626801 363.087158,189.939529 
	C366.006653,192.523361 368.109314,195.648895 369.530060,199.313553 
	C370.846466,202.708969 372.470001,205.985321 374.426788,210.361969 
	C377.370239,202.024048 377.380157,194.360535 376.373138,186.769882 
	C375.341431,178.993088 373.039337,171.601425 368.433350,164.938889 
	C365.863831,161.222107 361.958374,159.238113 359.127686,156.003357 
	C357.714111,154.388016 354.580902,152.971146 356.666687,150.348099 
	C359.019653,147.389008 361.223480,150.064133 362.908905,151.678268 
	C370.873566,159.306061 380.703064,162.464966 391.301941,163.868576 
	C393.408539,164.147552 395.506134,164.038162 398.313660,163.093231 
	C374.553680,153.123657 361.066345,134.307724 350.114349,113.069481 
	C347.827209,108.634254 345.724976,104.083984 342.641266,100.098976 
	C341.577362,98.724144 340.707367,97.125549 342.122833,95.594078 
	C343.514191,94.088730 345.222504,94.729263 346.667694,95.680359 
	C350.082428,97.927635 353.734070,98.274673 358.125031,97.314583 
	C356.860107,94.817924 354.599182,94.103973 352.632355,93.184288 
	C340.476776,87.500336 330.761871,78.942139 324.487976,67.181755 
	C320.336548,59.399910 313.743988,56.544746 306.013000,55.450634 
	C296.688568,54.131023 287.320892,52.534077 277.838196,55.069839 
	C273.408752,56.254311 269.356262,53.985775 265.469879,52.050327 
	C255.901321,47.285107 247.177979,41.259342 238.300308,33.063667 
	C239.106705,40.841221 240.827042,46.997791 244.386429,52.641647 
	C245.407196,54.260208 247.506317,55.656345 246.339035,57.889858 
	C245.182526,60.102753 242.779800,59.557365 240.915558,59.315685 
	C230.218506,57.928921 219.509567,56.572617 208.875931,54.782578 
	C203.135590,53.816261 198.707947,54.438744 194.938034,59.600464 
	C190.930832,65.087135 185.792267,69.728371 181.289673,74.835480 
	C171.209946,86.268494 157.908463,90.197952 143.674271,92.330170 
	C138.864792,93.050598 134.007919,93.454498 128.573074,94.071075 
	C131.564545,98.834572 135.313721,99.892479 139.705917,99.647514 
	C141.488983,99.548065 143.547913,98.863991 144.755692,100.767456 
	C146.129501,102.932587 144.237595,104.479881 143.328293,106.173782 
	C140.825714,110.835701 137.127991,114.201637 132.743790,117.199852 
	C124.337318,122.948746 117.479927,130.111145 114.981194,140.487762 
	C114.636566,141.918869 113.895790,143.299698 115.139351,145.255753 
	C120.326172,142.000870 125.617889,139.059189 128.849167,133.497421 
	C129.958603,131.587799 130.692337,128.516953 133.727600,129.570419 
	C136.960190,130.692352 135.939545,133.788223 135.342194,136.067917 
	C132.955963,145.174561 135.462387,153.528442 138.926743,161.761948 
	C142.162628,169.452469 147.229980,174.874390 156.085327,175.901489 
	C164.540146,176.882126 172.296585,180.735641 181.395996,182.524857 
	C178.999924,175.896881 176.845795,169.715149 176.038879,163.196442 
	C175.564636,159.365417 175.506210,155.609573 176.444351,151.802353 
	C177.378235,148.012436 179.381180,147.722733 182.266602,149.567291 
	C185.952377,151.923523 188.990845,155.024216 191.826569,158.309204 
	C193.579895,160.340347 195.505157,162.128555 199.034103,164.387741 
	C197.635010,161.168869 196.803772,159.020813 195.788757,156.963440 
	C192.087967,149.462204 189.131958,141.774673 188.219131,133.339615 
	C187.247635,124.362389 189.359146,116.267357 193.855988,108.553238 
	C197.139130,102.921158 202.502167,100.937080 208.307770,99.877380 
	C214.539169,98.739952 218.380264,102.111206 218.260696,108.440765 
	C218.145706,114.528809 216.845993,120.344849 212.808746,125.311447 
	C213.187836,125.389877 213.533997,125.574905 213.673187,125.474121 
	C224.000076,117.995552 227.219940,119.127113 232.835861,130.393127 
	C238.706650,142.170441 242.348083,154.442566 243.986649,167.431992 
	C244.903549,174.700546 243.531891,181.688492 241.976791,188.680130 
	C241.329346,191.590973 240.463333,194.453186 239.681168,197.395935 
	C244.383911,195.418808 251.301025,187.156097 253.470718,180.155380 
	C254.902649,175.535110 257.561462,171.126938 255.789764,165.736282 
	C254.949570,163.179855 257.506165,162.179886 259.667847,163.074066 
	C265.189392,165.358109 270.783447,167.518570 276.206635,169.968933 
	C281.479248,172.351212 283.638611,181.741272 280.675812,186.752945 
	C277.855377,191.523834 274.498199,195.867264 269.169434,198.188126 
	C261.727295,201.429413 257.438049,206.237900 259.045105,215.222794 
	C260.267426,222.056793 256.676636,227.749695 252.295593,232.868896 
	C253.781509,234.254181 255.204010,233.490952 256.572388,233.182465 
	C260.819611,232.224991 264.757385,230.411865 268.779694,228.809464 
	C274.686981,226.456100 275.665253,226.878586 278.114136,232.617874 
	C280.894684,239.134460 286.135834,242.613007 292.602936,244.623825 
	C294.648438,245.259857 297.512878,245.532883 296.831146,248.410828 
	C296.071198,251.618820 293.027863,250.597031 290.931824,250.055069 
	C283.726837,248.192078 277.625092,244.446091 274.214325,237.644852 
	C272.446381,234.119461 270.597809,234.079865 267.517273,235.510345 
	C259.777679,239.104294 251.734421,240.614182 243.242294,238.497681 
	C241.341721,238.023987 239.580231,237.505905 239.409195,235.265015 
	C239.242340,233.078659 241.206497,232.755844 242.666916,232.039658 
	C250.456833,228.219513 253.924698,222.406799 252.988129,213.963501 
	C252.088593,205.854004 254.425964,199.694519 261.957275,195.653534 
	C266.302551,193.322067 270.933044,191.233780 273.868744,186.813400 
	C277.871643,180.786041 276.363464,176.099716 269.518341,173.769882 
	C267.339417,173.028259 265.230255,172.081757 262.814941,171.119797 
	C259.994293,177.170593 258.874084,183.778595 255.315552,189.496826 
	C249.415573,198.977509 240.875458,205.507858 232.034882,211.794662 
	C230.444809,212.925385 228.368057,214.244965 226.593750,212.454727 
	C224.754395,210.598846 225.586838,208.351288 227.062881,206.590607 
	C234.571869,197.633667 237.202377,186.810410 238.459045,175.651321 
	C239.381241,167.462372 237.017792,159.399521 235.198196,151.536026 
	C233.176819,142.800491 228.583450,134.915085 224.075439,126.973450 
	C220.130051,127.464836 217.689880,130.145874 214.900452,132.104309 
	C211.902100,134.209427 209.104874,136.664474 205.681793,138.032455 
	C203.459152,138.920700 200.978058,139.158600 199.443756,136.657547 
	C198.033096,134.358063 200.050110,133.137177 201.207840,131.538544 
	C205.764557,125.246429 211.030075,119.336800 212.326096,111.223656 
	C213.145386,106.094841 211.542557,104.489105 206.712479,106.217606 
	C198.653961,109.101425 195.458023,115.732918 194.370056,123.525970 
	C193.220261,131.761749 194.274231,139.834656 197.810440,147.434326 
	C201.393341,155.134323 205.134766,162.760666 208.824326,170.410812 
	C209.677353,172.179504 211.260422,174.018295 209.405014,175.854828 
	C207.403381,177.836060 205.324051,176.470764 203.546371,175.224838 
	C197.549423,171.021759 191.317001,167.086914 186.604630,161.321167 
	C185.456894,159.916855 184.422714,158.419724 183.418823,157.075714 
	C180.634369,159.056168 181.656357,160.705139 181.787231,162.257263 
	C182.751266,173.690933 187.936630,182.787155 196.832047,189.928909 
	C198.396896,191.185257 201.103653,192.428268 199.629288,195.039413 
	C198.149612,197.659973 195.527100,196.421997 193.316101,195.819077 
	C189.530029,194.786636 186.519226,192.357574 183.386444,190.163559 
	C180.384552,188.061188 177.947876,187.684586 175.411057,191.244125 
	C171.879654,196.199173 166.851547,198.795868 160.662262,199.619614 
	C157.416656,200.051559 152.941406,199.955109 151.879242,204.091019 
	C150.840302,208.136459 154.064957,210.875107 156.876999,213.194794 
	C166.444504,221.087097 171.728043,231.407318 174.306122,243.294876 
	C176.289169,252.438675 179.228958,261.238495 182.903687,269.848999 
	C184.653229,273.948456 186.649765,275.297882 191.497467,275.114319 
	C201.102417,274.750641 210.728363,273.114990 220.382462,274.547516 
	C225.611908,275.323425 230.284592,274.055847 234.279205,270.474274 
	C235.517319,269.364166 236.838165,268.333435 238.198105,267.375671 
	C239.640869,266.359619 241.381958,265.709320 242.728683,267.214325 
	C244.295135,268.964874 243.357590,270.638092 241.768433,271.917206 
	C238.922241,274.208130 236.031631,276.443848 232.787979,278.994934 
	C236.086487,285.590454 238.650604,292.563232 236.737869,300.088379 
	C237.215881,300.502594 237.430939,300.849945 237.694092,300.891266 
	C239.625183,301.194580 242.505615,299.511932 243.072479,302.738281 
	C243.613449,305.817200 240.791122,306.851105 238.595581,307.051239 
	C231.778091,307.672760 229.257446,312.329834 227.113342,317.863281 
	C222.951675,328.603546 219.644775,339.518799 218.293747,351.015930 
	C217.599136,356.927094 215.315842,362.252228 210.681931,366.330109 
	C208.659439,368.109833 206.688324,370.178680 206.088104,372.771179 
	C203.612427,383.464233 196.283661,391.575653 191.421768,400.988190 
	C186.757263,410.018524 184.548737,419.680603 183.509140,429.688690 
	C183.143539,433.208282 184.915573,434.324799 188.020721,433.439484 
	C189.920715,432.897766 191.724075,431.944946 193.492630,431.026215 
	C203.592407,425.779572 214.177475,421.884583 225.309799,419.503998 
	C226.440048,419.262329 227.627716,419.054504 228.766083,419.138367 
	C230.631607,419.275848 231.964417,420.347290 231.957291,422.301453 
	C231.950928,424.040985 230.675491,425.007935 229.036545,425.175507 
	C216.197800,426.487976 204.746185,431.768158 193.439911,437.495453 
	C192.409607,438.017334 191.291519,438.586639 190.175186,438.683258 
	C180.725891,439.501373 177.697983,446.530548 175.839417,454.087738 
	C171.896362,470.120697 169.848999,486.432648 170.022644,502.983887 
	C170.056305,506.192383 170.740234,509.257477 171.918045,512.625000 
	C170.285645,513.000000 168.571289,513.000000 166.428467,513.000000 
	C161.905426,504.132019 164.144699,494.861115 164.864075,485.877686 
	C165.802216,474.162048 166.544983,462.113525 170.895874,451.145874 
	C175.017212,440.756897 177.986145,430.406677 179.364716,419.292603 
	C180.880280,407.073975 186.352936,396.111603 193.549911,386.100769 
	C196.101379,382.551758 198.010971,378.744324 199.142365,374.479187 
	C200.173477,370.592072 201.697754,366.663086 204.776154,364.044891 
	C210.560165,359.125580 212.546677,352.673737 213.483047,345.590302 
	C215.580521,329.723450 220.376785,314.895416 229.808685,301.711090 
	C233.360764,296.745819 231.372101,285.910217 226.760086,281.771301 
	C225.380219,280.532990 223.845108,280.334778 222.148102,280.323456 
	C211.170319,280.250153 200.186813,279.727081 189.240662,281.155975 
	C183.944809,281.847260 180.841812,278.854706 178.736481,274.427032 
	C174.288040,265.071625 170.877930,255.348053 168.789948,245.204895 
	C166.495941,234.060974 161.540222,224.545471 152.606476,217.279205 
	C151.448471,216.337341 150.331238,215.301498 149.380920,214.155167 
	C142.650757,206.036621 145.431732,197.342270 155.568649,194.788101 
	C157.500687,194.301300 159.488663,194.040924 161.440918,193.629150 
	C165.675812,192.735886 169.129761,190.753983 171.341431,186.478302 
	C165.724640,183.243179 159.634399,182.448975 153.660950,181.368729 
	C143.943893,179.611481 137.527557,173.801773 133.729370,165.023376 
	C130.901428,158.487396 128.878036,151.655472 128.341522,144.038528 
	C122.181679,147.255295 117.211365,151.384216 112.041954,155.216522 
	C110.479347,156.374939 108.931656,158.252670 106.809776,156.533127 
	C105.074158,155.126602 105.970619,153.261703 106.438744,151.454712 
	C107.437492,147.599487 108.182281,143.679321 109.111259,139.804993 
	C111.990570,127.796745 119.487877,119.159332 129.342072,112.272079 
	C131.768906,110.575928 134.556564,109.280846 135.955872,105.865921 
	C130.848785,104.459312 126.388901,102.064781 123.281807,97.741150 
	C119.413025,92.357635 120.384827,89.802910 126.709534,88.480377 
	C133.230835,87.116745 139.901367,86.930237 146.487595,86.059570 
	C163.605972,83.796631 175.660873,73.984756 186.020935,61.226803 
	C187.385727,59.546104 189.031738,58.052483 190.168762,56.235233 
	C195.138580,48.292278 202.434174,47.752411 210.698929,49.134171 
	C219.307983,50.573494 228.001099,51.509972 237.026001,52.715538 
	C235.620483,47.505989 234.249542,42.922539 233.166763,38.271999 
	C232.072556,33.572311 232.400208,28.961555 235.317520,24.885607 
	C237.235199,22.206299 239.514236,21.950844 241.180557,24.984116 
	C247.804901,37.042694 259.738586,42.186222 271.013123,48.218040 
	C275.058685,50.382389 279.217285,48.896072 283.273376,48.448811 
	C296.130035,47.031132 308.431305,49.373657 320.401001,53.753803 
	C323.804565,54.999279 325.669617,58.338707 327.409149,61.339642 
	C334.825500,74.133705 344.968750,83.834114 358.660889,89.684746 
	C361.800049,91.026115 364.296722,93.213387 366.161255,96.084641 
	C368.664825,99.939980 367.697815,102.359207 363.149475,103.129341 
	C359.902618,103.679100 356.595795,103.874611 352.778839,104.286079 
	C355.834808,113.023399 360.763672,120.096474 365.341492,127.355881 
	C372.498688,138.705658 381.875885,147.727631 393.508942,154.436050 
	C398.271912,157.182724 403.574341,157.756744 408.829620,158.539001 
	C410.533783,158.792694 412.351013,158.827103 412.688812,160.924179 
	C413.067291,163.273941 411.524628,164.635941 409.606140,165.522552 
	C401.907074,169.080597 394.005676,171.225693 385.458221,168.939941 
	C382.936493,168.265594 380.358276,167.802551 377.131042,167.094604 
	C379.980499,175.377045 382.195129,183.187225 382.698425,191.307114 
	C383.185669,199.168335 382.279877,206.919830 379.453918,214.329819 
	C378.575836,216.632263 377.564972,219.222900 374.441833,219.180511 
	C371.333984,219.138321 370.516022,216.465439 369.474915,214.229172 
	C367.753540,210.531647 366.989838,206.380020 364.201630,202.463684 
	C356.263062,210.223404 350.360718,218.721909 346.288727,228.490082 
	C345.201721,231.097717 344.518951,233.871948 343.474152,236.499527 
	C340.930634,242.896240 342.501953,248.111145 347.537170,252.651993 
	C351.844788,256.536682 351.322510,259.801300 345.916809,262.496368 
	C335.070312,267.903900 324.334778,269.055145 314.021362,261.073425 
	C312.868256,260.181030 311.462006,259.615753 309.732727,258.653778 
	C305.211212,265.450500 306.111115,272.510651 306.864685,279.687836 
	C315.274963,278.742401 317.329346,280.113220 319.122467,288.245728 
	C320.587280,294.889343 321.788757,301.507416 320.562653,308.490448 
	C319.587036,314.047028 319.996094,319.702911 323.262634,324.873962 
	C326.114868,329.389130 323.259155,332.716766 319.980927,335.612640 
	C320.580261,337.764282 322.532349,338.376129 323.905029,339.398468 
	C340.126282,351.479156 352.585480,367.084564 364.618713,383.026367 
	C372.618713,393.624908 379.657166,404.909698 386.471313,416.313538 
	C388.316406,419.401428 388.724823,422.965576 389.022339,426.407593 
	C390.190338,439.920349 389.042267,453.362518 386.718811,466.662354 
	C384.967865,476.684753 384.199402,486.794128 383.503387,496.890503 
	C383.152649,501.978546 381.309540,507.056549 382.876617,512.620361 
	C381.285645,513.000000 379.571289,513.000000 377.428467,513.000000 
z"/>
<path fill="#000000" opacity="1.000000" stroke="none" 
	d="
M254.444153,513.000000 
	C266.567841,498.859467 265.661804,482.466980 262.366821,465.440643 
	C260.662109,456.631989 260.270050,447.590668 260.733765,438.594910 
	C261.080811,431.863098 262.844055,425.347656 266.228638,419.562958 
	C274.069061,406.162506 284.647308,395.160614 297.167480,386.027954 
	C298.888489,384.772552 301.122314,383.221222 302.813721,385.711060 
	C304.294952,387.891479 302.350769,389.306549 300.664886,390.520905 
	C289.878784,398.289917 280.903442,407.846649 273.407715,418.759033 
	C266.757568,428.440399 265.573883,439.430450 266.584564,450.799347 
	C267.643768,462.714417 268.839478,474.616913 271.184113,486.365112 
	C272.633972,493.629883 267.760529,498.973083 265.546600,505.113861 
	C264.652130,507.594879 263.259094,509.896179 262.046448,512.639648 
	C259.629456,513.000000 257.258881,513.000000 254.444153,513.000000 
z"/>
<path fill="#000000" opacity="1.000000" stroke="none" 
	d="
M371.375000,513.000000 
	C372.540375,505.472626 369.555695,498.295563 369.240875,490.905914 
	C369.172546,489.302612 368.484528,487.734833 369.631042,485.026794 
	C372.115509,494.625732 372.534973,503.493195 373.971252,512.593445 
	C373.250000,513.000000 372.500000,513.000000 371.375000,513.000000 
z"/>
<path fill="#000000" opacity="1.000000" stroke="none" 
	d="
M175.333328,513.000000 
	C172.685791,504.808044 173.092133,491.604401 176.223862,486.023926 
	C175.831863,494.789093 174.064423,503.602875 176.878143,512.629517 
	C176.555557,513.000000 176.111099,513.000000 175.333328,513.000000 
z"/>
<path fill="#000000" opacity="1.000000" stroke="none" 
	d="
M261.762085,354.647400 
	C269.528137,351.198181 275.114410,345.362244 281.061523,340.095673 
	C285.492584,336.171661 290.299927,332.994934 295.579437,330.520874 
	C309.723572,323.892822 308.157379,321.759583 307.227112,306.236938 
	C306.956573,301.722290 304.331512,298.352570 301.461365,294.918488 
	C305.306763,294.009705 307.991669,295.466980 309.188141,299.197357 
	C311.507812,306.429779 312.025604,313.980591 310.993378,321.401886 
	C310.348145,326.040588 306.621094,329.351898 302.357269,331.132080 
	C292.172821,335.384125 283.898560,342.194611 275.877380,349.525848 
	C272.707825,352.422791 269.041565,354.831146 265.397247,357.139618 
	C260.981964,359.936462 256.538940,358.417511 254.174164,353.670166 
	C251.975494,349.256226 252.125290,344.428192 252.944412,339.951202 
	C254.271683,332.696716 253.731598,326.091064 249.554123,319.914062 
	C249.094818,319.234924 248.814667,318.407043 249.549240,317.455109 
	C251.239822,316.276550 252.148315,317.627411 252.948105,318.892639 
	C256.345215,324.266846 258.276031,330.023743 256.889740,336.445923 
	C256.033478,340.412537 256.226410,344.408356 256.343750,348.383881 
	C256.437714,351.567566 257.624084,354.267059 261.762085,354.647400 
z"/>
<path fill="#000000" opacity="1.000000" stroke="none" 
	d="
M299.209625,186.000336 
	C297.642853,196.487976 290.026367,201.870560 282.658020,207.278687 
	C278.788239,210.119019 274.830109,213.119690 269.559113,214.528625 
	C269.045380,210.776642 271.400208,209.871674 273.269989,208.770050 
	C279.022827,205.380615 284.671967,201.789551 289.248444,196.909439 
	C297.166260,188.466309 296.572906,185.165329 292.871521,177.338791 
	C292.062653,175.628418 290.296021,173.677902 292.709595,172.085617 
	C294.759491,170.733261 296.829498,171.540771 298.615295,173.131744 
	C301.370850,175.586639 302.485596,178.846771 303.330109,182.277939 
	C305.694580,191.884827 305.744568,201.713806 305.844177,211.492889 
	C305.937561,220.666992 303.539368,229.953888 307.856812,238.686432 
	C305.446869,240.444168 304.520294,238.793625 303.620911,237.449661 
	C301.986053,235.006638 301.647614,232.228989 301.660034,229.342758 
	C301.706512,218.530914 301.767853,207.718155 301.671204,196.907089 
	C301.614838,190.601395 300.618927,184.427032 297.771698,178.637085 
	C298.252106,180.955978 298.732544,183.274857 299.209625,186.000336 
z"/>
<path fill="#000000" opacity="1.000000" stroke="none" 
	d="
M198.763092,249.980927 
	C202.847366,247.709854 203.675323,244.069473 204.849136,239.748138 
	C198.594620,240.699768 193.007401,240.306259 187.422775,240.316589 
	C184.757309,240.321518 183.026718,241.372437 182.086777,243.899033 
	C181.434509,245.652344 180.090714,246.703659 178.183212,246.034332 
	C175.773468,245.188766 176.250519,243.046432 176.815918,241.387741 
	C178.239853,237.210266 181.274963,234.845047 185.757584,234.704102 
	C189.245071,234.594452 192.741455,234.621460 196.229706,234.726440 
	C199.347366,234.820282 202.133789,234.068802 204.621368,232.161133 
	C205.972992,231.124542 207.473892,230.173386 209.151871,231.357941 
	C210.633743,232.404068 210.926102,234.037506 210.857559,235.794006 
	C210.197144,252.720566 200.218094,260.588776 183.640381,257.272461 
	C181.798996,256.904083 180.384079,256.113586 180.535263,254.100723 
	C180.700012,251.907364 182.502121,251.757370 184.247482,251.702011 
	C189.012802,251.550858 193.922485,252.710846 198.763092,249.980927 
z"/>
<path fill="#000000" opacity="1.000000" stroke="none" 
	d="
M317.666962,172.335602 
	C315.066284,169.670990 312.222321,167.959885 309.308960,166.333694 
	C308.046539,165.629013 307.177399,164.557114 307.849670,163.052765 
	C308.575195,161.429352 309.937622,161.708923 311.244415,162.289154 
	C326.526642,169.075012 340.436768,177.234604 344.343781,195.397461 
	C344.669464,196.911591 346.001221,198.447922 343.586395,200.400803 
	C339.524841,196.273911 339.195282,190.341492 336.518677,185.672729 
	C333.738617,180.823502 330.230621,176.792770 324.404449,173.707062 
	C329.104095,183.411591 330.614441,192.878494 330.416962,202.789780 
	C330.227081,212.319962 329.805176,221.648727 324.158783,230.859375 
	C321.810974,227.204254 323.511658,224.785263 324.210602,222.449097 
	C327.773468,210.540344 327.605591,198.510681 325.312012,186.471237 
	C324.303650,181.178131 321.931641,176.388641 317.666962,172.335602 
z"/>
<path fill="#000000" opacity="1.000000" stroke="none" 
	d="
M243.869019,403.893524 
	C245.348679,401.855896 246.575729,400.072418 247.935913,398.397095 
	C251.026215,394.590820 253.879364,394.871918 255.723770,399.257141 
	C257.345581,403.113007 257.710754,407.285828 258.252747,411.389679 
	C258.466156,413.005615 257.816986,414.407135 256.233704,415.032928 
	C254.695557,415.640808 253.830551,414.639343 253.014297,413.445007 
	C249.892105,408.876892 246.925705,409.162292 244.190704,414.453552 
	C247.911362,417.762299 255.670761,413.753632 257.912933,421.816559 
	C246.590897,420.211456 236.296066,417.592773 225.478241,417.683807 
	C225.216507,415.962494 225.006302,414.579987 224.761459,412.969727 
	C229.500717,412.412170 233.705444,414.698059 238.555389,414.539612 
	C238.177567,409.991669 241.477631,407.393280 243.869019,403.893524 
z"/>
<path fill="#000000" opacity="1.000000" stroke="none" 
	d="
M332.817078,122.421677 
	C333.163300,132.359451 336.628357,141.344681 338.645264,150.823502 
	C334.797302,150.843445 334.885620,148.581329 334.281097,147.029510 
	C330.743073,137.947235 329.795288,128.342148 328.689362,118.772484 
	C327.754578,110.683563 326.755463,102.614235 323.706360,94.961227 
	C319.950958,85.535530 313.900757,78.449211 304.020203,75.058563 
	C302.268555,74.457458 299.935791,74.467064 299.201874,71.713989 
	C300.916565,70.083763 302.742767,70.925278 304.595154,71.473434 
	C316.291168,74.934563 323.274017,83.152069 327.415680,94.166374 
	C330.783569,103.122986 331.697815,112.569717 332.817078,122.421677 
z"/>
<path fill="#000000" opacity="1.000000" stroke="none" 
	d="
M176.143799,117.920120 
	C175.940216,113.222954 175.492813,108.880791 175.816742,104.596954 
	C176.253418,98.821480 179.033112,94.186264 184.160782,91.173820 
	C189.119125,88.260857 194.594757,86.896378 200.185089,85.925499 
	C201.690079,85.664124 203.226639,85.694901 203.891357,87.829391 
	C202.522430,90.067780 199.899033,89.783165 197.824326,90.218788 
	C178.616638,94.251884 178.314468,103.128342 179.776535,117.017662 
	C180.227722,121.303741 181.297546,125.516777 183.380081,129.393768 
	C183.992340,130.533569 184.709946,131.774216 182.781586,134.131134 
	C175.475143,124.355606 165.718109,118.703041 152.615692,118.309723 
	C156.925995,114.578278 156.925995,114.578278 175.877380,121.009552 
	C176.933884,120.234825 176.411102,119.243614 176.143799,117.920120 
z"/>
<path fill="#000000" opacity="1.000000" stroke="none" 
	d="
M220.550217,183.905670 
	C219.512131,188.803528 217.756500,193.055344 214.339417,196.476120 
	C213.120163,197.696701 211.725281,198.870941 210.004654,197.497925 
	C208.154846,196.021820 208.635986,194.264877 209.987961,192.704254 
	C215.610291,186.214127 215.935074,178.180389 216.550385,170.242950 
	C216.700012,168.312943 215.884918,165.816376 218.531876,165.240128 
	C221.427460,164.609726 222.025818,167.303024 222.715271,169.242828 
	C225.275620,176.446426 227.692978,183.701004 230.142853,190.943604 
	C230.627670,192.376831 231.198669,194.001633 229.418854,194.894135 
	C227.557175,195.827713 226.124939,194.756256 225.295853,193.180252 
	C223.656570,190.064163 222.208755,186.847336 220.550217,183.905670 
z"/>
<path fill="#000000" opacity="1.000000" stroke="none" 
	d="
M216.253998,389.808350 
	C213.328018,391.285950 212.244415,395.062286 208.886597,396.118805 
	C206.721375,393.638916 208.793152,392.336609 209.835800,390.823029 
	C213.321655,385.762817 218.479782,382.032318 221.283417,376.428223 
	C227.921570,363.159454 233.228287,349.460083 235.271301,334.636444 
	C235.797028,330.821808 233.290985,327.319794 234.319199,323.315125 
	C237.944138,323.694489 237.977844,326.537903 238.343887,328.794220 
	C239.864197,338.165527 236.889999,346.908081 233.923386,355.515259 
	C230.625900,365.082428 226.993042,374.554321 221.794876,384.057678 
	C219.762222,386.375946 218.008118,388.092163 216.253998,389.808350 
z"/>
<path fill="#000000" opacity="1.000000" stroke="none" 
	d="
M151.987991,104.898010 
	C153.040131,101.851044 153.811829,99.160446 153.714966,96.261162 
	C153.605560,92.985901 155.151993,91.461960 158.594711,91.532555 
	C168.723587,91.740234 177.823898,88.359894 186.423355,83.271606 
	C188.275360,82.175774 189.957077,79.984764 192.582367,81.401192 
	C193.440155,83.507919 191.820694,84.129745 190.657715,84.961502 
	C181.913223,91.215477 172.097809,94.546638 161.434219,95.270332 
	C158.513535,95.468552 157.582748,96.357147 157.331879,99.403328 
	C156.507660,109.411766 145.711792,122.191994 136.373093,124.779221 
	C135.489395,125.024040 134.737198,124.783806 133.894516,123.050781 
	C139.363831,116.959045 148.901321,114.214172 151.987991,104.898010 
z"/>
<path fill="#000000" opacity="1.000000" stroke="none" 
	d="
M176.338943,474.326172 
	C177.196075,465.101959 178.673676,456.468018 182.597412,448.429352 
	C183.399979,446.785126 184.128159,444.986267 186.028625,444.338135 
	C197.506714,440.423584 207.380737,432.767792 219.393356,430.086182 
	C222.034058,429.496704 221.998413,429.337006 224.869568,430.441345 
	C224.630081,432.622284 222.732086,432.767761 221.254196,433.183136 
	C212.887772,435.534668 205.484863,440.662933 197.443298,443.041168 
	C182.809052,447.369110 182.422348,458.948029 180.330017,470.196533 
	C179.683121,473.674286 180.007278,477.361359 178.039093,481.061188 
	C175.324478,479.203094 175.813782,476.967133 176.338943,474.326172 
z"/>
<path fill="#000000" opacity="1.000000" stroke="none" 
	d="
M346.688904,136.159332 
	C346.259216,131.729630 345.921631,127.765976 345.387421,123.829002 
	C344.837677,119.777473 341.719452,116.971931 339.138000,112.523735 
	C344.686035,112.618279 346.740295,115.666100 347.863220,119.186485 
	C349.476776,124.245041 349.937927,129.548279 350.395599,134.863220 
	C351.350189,145.948303 350.549408,157.115692 352.253998,168.168182 
	C352.890533,172.295609 355.511688,175.488083 357.542694,179.538162 
	C352.960205,180.259033 351.733704,177.479675 350.604584,175.093323 
	C348.668579,171.001495 348.012604,166.502151 347.741211,162.042297 
	C347.226501,153.583984 347.025818,145.106567 346.688904,136.159332 
z"/>
<path fill="#000000" opacity="1.000000" stroke="none" 
	d="
M238.109055,81.668579 
	C236.407166,77.501411 234.877960,73.668625 233.254639,69.599976 
	C225.386703,72.353668 218.486435,78.285400 210.054840,77.974403 
	C209.818085,77.108650 209.581329,76.242897 209.344559,75.377144 
	C217.385757,73.228142 224.733582,69.574539 231.890793,65.483734 
	C234.248535,64.136116 236.314835,64.774727 236.961823,67.433075 
	C239.681702,78.608681 245.208374,88.021545 253.925308,95.561882 
	C254.323608,95.906403 254.283920,96.757233 254.453445,97.391815 
	C249.580261,98.180939 245.425186,94.170410 238.109055,81.668579 
z"/>
<path fill="#000000" opacity="1.000000" stroke="none" 
	d="
M226.794067,87.038292 
	C231.970840,90.947845 232.707504,95.022156 229.777802,101.728264 
	C225.515427,111.484909 225.516678,111.456512 236.147293,111.926880 
	C240.623642,112.124947 245.101257,112.384567 249.562866,112.787140 
	C251.771805,112.986465 254.219513,113.137825 255.020355,115.840370 
	C254.653198,116.321434 254.448776,116.800011 254.272659,116.789810 
	C245.714951,116.294174 237.067703,116.639450 228.639099,114.882591 
	C223.373596,113.785049 221.736191,110.096138 223.716248,105.154068 
	C224.207169,103.928772 224.886948,102.777054 225.507431,101.606094 
	C229.171951,94.690445 228.758133,93.206993 222.086334,89.031380 
	C221.595505,88.724190 221.314804,88.081299 220.949615,87.611465 
	C222.660217,85.058746 224.611984,86.557297 226.794067,87.038292 
z"/>
<path fill="#000000" opacity="1.000000" stroke="none" 
	d="
M259.436951,135.625427 
	C258.071533,134.011002 257.166412,132.362167 254.960464,131.752426 
	C251.900269,137.849854 253.857605,145.691254 248.716965,150.780182 
	C247.062271,150.196350 246.907440,149.400253 247.091003,148.543228 
	C248.269333,143.042114 249.382599,137.524338 250.706833,132.057968 
	C252.102737,126.295753 255.127319,125.518242 259.390778,129.818481 
	C263.419800,133.882278 265.989075,138.958466 268.642334,143.940369 
	C270.827759,148.043839 272.902527,152.209946 274.895416,156.410400 
	C275.628357,157.955231 277.019562,159.566986 274.513916,162.667206 
	C268.765045,153.811584 265.323517,144.165756 259.436951,135.625427 
z"/>
<path fill="#000000" opacity="1.000000" stroke="none" 
	d="
M229.048645,396.160309 
	C231.277756,390.732666 234.389130,387.531219 240.523926,388.845123 
	C242.503601,389.269073 244.821274,389.028473 245.044067,391.623047 
	C245.256042,394.091492 242.975616,394.075653 241.253677,394.643341 
	C239.518433,395.215393 237.173065,394.410370 236.090393,396.592072 
	C236.465302,397.777008 237.436554,397.537964 238.187225,397.715759 
	C239.990692,398.142944 241.315796,399.061249 241.009827,401.107605 
	C240.734741,402.947327 239.206131,403.466339 237.641739,403.300903 
	C233.635590,402.877319 230.952606,404.059235 230.049988,408.377289 
	C229.719467,409.958466 228.210190,410.834137 226.535980,410.286011 
	C224.821548,409.724731 224.531418,408.116058 224.799454,406.583527 
	C225.435638,402.946075 227.294342,399.768951 229.048645,396.160309 
z"/>
<path fill="#000000" opacity="1.000000" stroke="none" 
	d="
M281.442963,72.824875 
	C285.848389,73.358696 284.272339,75.283463 282.320984,76.345322 
	C278.833496,78.243118 275.070801,79.636887 271.416138,81.225121 
	C269.624084,82.003906 267.490753,82.029266 265.767242,83.908859 
	C272.540527,92.368767 274.919189,102.374054 276.290802,112.747231 
	C273.869476,113.398041 273.147217,112.611183 272.811340,111.335587 
	C272.093414,108.609261 271.344604,105.887978 270.737152,103.136230 
	C268.854401,94.607483 265.556122,86.997841 256.949463,82.095566 
	C265.439880,79.242538 273.663391,77.054817 281.442963,72.824875 
z"/>
<path fill="#000000" opacity="1.000000" stroke="none" 
	d="
M294.931763,92.142044 
	C292.124054,90.524963 288.796082,90.481865 287.070557,87.743881 
	C287.401154,87.294434 287.581818,86.824417 287.773956,86.819664 
	C300.379974,86.508072 312.108307,97.153984 313.445831,109.434715 
	C314.193298,116.298103 313.032654,123.034729 313.209167,129.833694 
	C313.256287,131.647461 312.892822,133.417358 311.266357,134.565552 
	C309.142181,133.709427 309.673950,132.012726 309.674835,130.644348 
	C309.678375,125.155579 309.685760,119.663200 309.881317,114.178917 
	C310.268036,103.334679 305.320374,96.130302 294.931763,92.142044 
z"/>
<path fill="#000000" opacity="1.000000" stroke="none" 
	d="
M283.056335,127.521790 
	C282.393585,115.804749 282.422638,104.589111 285.014893,93.165985 
	C288.212189,94.660286 287.633270,96.615959 287.431213,98.339088 
	C285.497650,114.828583 285.674652,131.159271 290.898041,147.139694 
	C291.269348,148.275711 291.331604,149.433197 290.351440,150.375763 
	C286.577881,148.551758 286.231354,147.472092 283.056335,127.521790 
z"/>
<path fill="#000000" opacity="1.000000" stroke="none" 
	d="
M305.782501,394.627258 
	C298.641571,401.342163 291.657501,407.727539 284.695404,414.136780 
	C279.970886,418.486115 275.973389,423.278595 275.104675,429.983704 
	C274.972992,431.000366 274.425079,431.863678 272.977081,431.820038 
	C270.986786,430.388336 271.780609,428.409210 272.235382,426.538971 
	C273.323883,422.062653 275.575684,418.087494 278.806244,414.962952 
	C286.205109,407.806915 293.855682,400.906372 301.545990,394.061554 
	C302.654388,393.074982 304.756622,389.985840 305.782501,394.627258 
z"/>
<path fill="#000000" opacity="1.000000" stroke="none" 
	d="
M267.872864,509.018463 
	C271.179657,499.993988 275.913666,491.841431 275.790619,482.136261 
	C275.713898,476.084778 274.715454,470.286591 272.863159,464.565125 
	C272.333435,462.928864 271.109344,461.249054 272.414764,459.240936 
	C275.429108,459.201965 275.590271,461.808380 276.198669,463.612061 
	C280.077606,475.111725 280.789917,486.650879 276.083801,498.139374 
	C274.510742,501.979492 273.022156,505.864288 271.223846,509.598083 
	C270.261536,511.596100 268.696228,513.722778 267.872864,509.018463 
z"/>
<path fill="#000000" opacity="1.000000" stroke="none" 
	d="
M265.016602,63.024708 
	C262.527924,61.473858 260.039246,59.923008 256.958832,58.003418 
	C256.707947,62.887478 258.628967,67.465416 253.032211,71.886276 
	C253.341827,64.237076 253.858887,57.512436 249.468170,51.574703 
	C260.190247,54.340019 268.498566,61.867218 279.131012,64.217812 
	C274.090698,67.874298 270.059570,64.000626 265.348267,63.067585 
	C264.988678,62.997841 265.016602,63.024712 265.016602,63.024708 
z"/>
<path fill="#000000" opacity="1.000000" stroke="none" 
	d="
M151.432144,148.406464 
	C153.376801,157.719955 157.147308,165.284073 166.643066,168.915192 
	C161.512848,171.594986 158.404938,169.091019 155.738220,166.183533 
	C147.749802,157.473923 146.556915,146.897156 148.216568,135.809128 
	C148.584915,133.348206 147.708069,129.984207 151.778656,128.062454 
	C153.148560,135.046692 150.352310,141.535324 151.432144,148.406464 
z"/>
<path fill="#000000" opacity="1.000000" stroke="none" 
	d="
M336.579987,392.727325 
	C335.036133,394.731842 333.569733,394.319183 331.991028,393.380981 
	C325.915161,389.769989 319.423920,387.479156 312.286133,387.244080 
	C310.610504,387.188873 309.305786,386.339233 309.197021,384.607727 
	C309.083984,382.808746 310.408875,381.830902 312.040649,381.801422 
	C320.582642,381.647125 328.339569,384.235962 335.416473,388.907928 
	C336.537201,389.647827 337.190613,390.889893 336.579987,392.727325 
z"/>
<path fill="#000000" opacity="1.000000" stroke="none" 
	d="
M224.050415,161.781586 
	C220.544861,160.615387 217.833572,161.792725 215.163727,163.291870 
	C213.463287,164.246674 211.594055,164.864685 210.368225,162.764359 
	C208.948135,160.331192 210.834549,159.177567 212.598251,158.086456 
	C218.619278,154.361588 225.088654,154.231232 229.325241,157.991058 
	C231.145279,159.606277 233.598236,161.744247 231.443573,164.267624 
	C229.229919,166.860092 227.387711,164.173447 225.658142,162.753616 
	C225.275314,162.439346 224.824890,162.207413 224.050415,161.781586 
z"/>
<path fill="#000000" opacity="1.000000" stroke="none" 
	d="
M258.075928,474.101990 
	C259.410339,480.000092 260.990845,485.451294 261.755798,491.014648 
	C262.818390,498.742859 258.479584,504.285980 253.090576,510.735413 
	C252.691711,507.169037 254.210709,505.890228 255.255615,504.621521 
	C259.899872,498.982483 260.565948,492.698090 258.937378,485.831146 
	C256.568329,475.841827 253.601440,465.985352 253.076126,455.605316 
	C252.688797,447.951447 254.088669,440.822601 257.637512,434.004944 
	C253.808197,447.325287 254.420929,460.525024 258.075928,474.101990 
z"/>
<path fill="#000000" opacity="1.000000" stroke="none" 
	d="
M331.245239,237.252441 
	C330.867584,243.618225 331.720947,249.260345 335.019043,254.765503 
	C327.219360,250.619766 319.636444,246.225632 310.448425,246.758713 
	C317.310760,244.254974 323.363068,246.857864 330.089630,249.619614 
	C327.687012,234.187225 331.007935,221.092331 344.130371,211.865082 
	C338.787048,219.614426 331.616638,226.458969 331.245239,237.252441 
z"/>
<path fill="#000000" opacity="1.000000" stroke="none" 
	d="
M280.697968,215.637939 
	C279.607239,216.056335 278.823944,216.427658 277.568970,215.216309 
	C285.930756,210.971497 292.406677,204.809158 297.375641,196.635132 
	C300.214355,199.416580 300.265747,202.614395 300.093048,205.592514 
	C299.727875,211.889648 298.782288,218.152954 298.411499,224.449982 
	C298.132477,229.188477 298.156250,233.960968 298.150208,238.725800 
	C294.851562,226.491440 298.584595,214.053818 297.768524,200.858429 
	C292.082825,206.452850 287.915161,212.613083 280.697968,215.637939 
z"/>
<path fill="#000000" opacity="1.000000" stroke="none" 
	d="
M167.758759,157.252075 
	C164.578598,157.581482 165.440002,155.540009 165.584396,154.029419 
	C165.945724,150.249222 166.453659,146.482925 166.807404,142.702148 
	C167.256287,137.904648 166.058884,133.836105 161.561005,131.252686 
	C160.578629,130.688446 159.588882,129.927017 160.013565,128.484222 
	C164.570984,127.566200 169.323059,131.020126 170.137115,136.523499 
	C171.163208,143.460358 170.519241,150.365921 167.758759,157.252075 
z"/>
<path fill="#000000" opacity="1.000000" stroke="none" 
	d="
M213.919952,61.832619 
	C214.390274,63.219170 214.988983,64.466019 213.523376,65.132446 
	C212.439011,65.625519 211.673157,64.786415 210.987122,64.046021 
	C209.996521,62.976921 209.440033,61.461159 207.540451,60.848152 
	C202.858383,65.144485 201.051880,72.483551 194.399109,75.208176 
	C193.035767,72.939758 194.475082,71.976959 195.298187,70.817596 
	C197.405655,67.849182 199.592682,64.932457 201.588013,61.890190 
	C206.482925,54.426918 208.323669,54.348808 213.919952,61.832619 
z"/>
<path fill="#000000" opacity="1.000000" stroke="none" 
	d="
M335.722961,364.258179 
	C329.881775,357.666107 324.892456,350.607422 315.839264,347.862885 
	C317.161682,346.370575 318.489136,346.544983 319.564209,347.065704 
	C321.799896,348.148590 324.306458,349.082275 326.018036,350.770447 
	C336.918915,361.522247 346.684845,373.272980 355.614441,385.788269 
	C351.248016,383.571838 349.052338,379.167847 345.901398,375.748505 
	C342.514557,372.073212 339.259918,368.276093 335.722961,364.258179 
z"/>
<path fill="#000000" opacity="1.000000" stroke="none" 
	d="
M311.633148,142.749054 
	C315.736115,140.562546 317.452209,136.955750 319.184082,133.341415 
	C319.701538,132.261520 319.700867,130.515900 321.730499,131.018494 
	C323.232635,131.390457 323.295807,132.595917 323.299225,133.755295 
	C323.321808,141.425262 325.007355,148.785507 326.942688,156.161942 
	C322.519684,149.814743 321.865692,142.424789 321.166077,134.481812 
	C317.599976,145.324341 308.768219,147.044464 299.439056,147.827713 
	C302.841858,144.906921 307.663422,145.385208 311.633148,142.749054 
z"/>
<path fill="#000000" opacity="1.000000" stroke="none" 
	d="
M279.634827,366.618958 
	C286.964386,362.522644 292.184052,356.017242 299.604767,352.709991 
	C287.225037,364.998932 273.265015,374.770020 256.271179,379.618347 
	C263.720001,374.943115 271.952240,371.645599 279.634827,366.618958 
z"/>
<path fill="#000000" opacity="1.000000" stroke="none" 
	d="
M241.137955,106.776680 
	C246.540787,108.156754 251.670425,107.481773 256.761597,107.339394 
	C256.782745,107.974258 256.803925,108.609131 256.825104,109.243996 
	C251.812576,109.243996 246.763672,109.629051 241.795502,109.159630 
	C232.891464,108.318344 232.911774,108.103500 235.358337,99.498192 
	C237.766052,91.029518 235.621460,87.487152 226.122269,84.242317 
	C232.254944,79.945915 239.451401,87.120781 238.123749,96.397987 
	C237.683746,99.472733 236.594376,102.454552 235.856232,105.271538 
	C237.338928,107.197014 239.170975,106.414909 241.137955,106.776680 
z"/>
<path fill="#000000" opacity="1.000000" stroke="none" 
	d="
M265.499146,409.611816 
	C275.542572,395.430054 288.120697,384.289520 296.237762,382.795532 
	C290.323059,387.902405 283.501343,391.910583 277.992737,397.525726 
	C272.519043,403.105255 268.052612,409.449615 263.267761,416.966431 
	C262.962799,413.443573 264.390106,411.762939 265.499146,409.611816 
z"/>
<path fill="#000000" opacity="1.000000" stroke="none" 
	d="
M358.447662,430.795776 
	C360.735260,439.244995 362.300537,447.373169 361.818878,455.811951 
	C358.107880,440.599823 358.701874,423.910919 344.971466,411.963287 
	C351.280853,413.238770 355.214386,418.950195 358.447662,430.795776 
z"/>
<path fill="#000000" opacity="1.000000" stroke="none" 
	d="
M288.997803,297.018158 
	C290.412537,296.868469 291.870026,296.151855 293.689301,297.496460 
	C281.384430,303.253021 269.096436,307.327911 255.370499,304.815369 
	C266.977753,304.690308 278.071869,302.435028 288.781311,297.204834 
	C289.058685,296.978394 289.016418,297.002533 288.997803,297.018158 
z"/>
<path fill="#000000" opacity="1.000000" stroke="none" 
	d="
M137.934296,132.707428 
	C138.518356,131.927704 138.949142,131.461914 139.379944,130.996124 
	C135.767487,143.273788 138.158920,154.649704 144.309250,165.562592 
	C136.854813,160.454132 133.937241,144.605865 137.934296,132.707428 
z"/>
<path fill="#000000" opacity="1.000000" stroke="none" 
	d="
M160.500153,112.252594 
	C164.071350,111.251785 167.364258,111.722137 171.170593,112.190514 
	C171.012009,107.138565 169.741318,101.657204 175.712112,98.640579 
	C173.731293,103.292480 172.299805,107.873909 174.184708,112.904129 
	C174.703033,114.287361 173.205139,115.599251 171.699738,115.058517 
	C168.049225,113.747231 164.381134,113.204369 160.539062,113.663109 
	C160.481750,113.669968 160.329285,112.879646 160.500153,112.252594 
z"/>
<path fill="#000000" opacity="1.000000" stroke="none" 
	d="
M167.663269,99.057602 
	C163.552505,98.885788 161.458191,100.222015 160.923584,104.287880 
	C160.580872,106.894516 160.054642,109.839554 156.556091,112.624756 
	C157.925339,107.079590 158.921463,102.708649 160.114807,98.392220 
	C160.542374,96.845703 162.097610,96.753387 163.455536,96.827881 
	C166.952301,97.019714 170.369186,96.523544 174.645264,95.244415 
	C172.841339,98.594612 170.106552,98.169479 167.663269,99.057602 
z"/>
<path fill="#000000" opacity="1.000000" stroke="none" 
	d="
M184.740982,105.395233 
	C184.388046,106.649094 184.149002,107.566566 183.806152,108.882454 
	C182.426697,104.779968 183.725464,98.745331 186.684540,96.055321 
	C191.160568,91.986298 196.667648,91.147186 202.634735,91.587509 
	C194.635773,93.528282 186.404816,94.897949 184.740982,105.395233 
z"/>
<path fill="#000000" opacity="1.000000" stroke="none" 
	d="
M304.212952,332.515350 
	C305.519379,332.348541 307.222931,332.982544 306.068512,333.639893 
	C299.562622,337.344360 293.695404,342.004120 287.212067,345.794739 
	C291.550476,339.816711 297.354980,335.755737 304.212952,332.515350 
z"/>
<path fill="#000000" opacity="1.000000" stroke="none" 
	d="
M270.451813,178.412811 
	C268.630127,177.368561 267.042999,176.569107 264.483276,175.279770 
	C268.178986,174.381210 270.358490,175.126785 272.085114,177.328354 
	C273.730865,179.426804 273.515625,181.589172 272.116791,183.766220 
	C270.825531,185.775818 269.100403,187.289413 266.981689,188.313736 
	C263.569366,189.963470 261.359497,193.064331 257.796051,196.275604 
	C259.110992,190.515411 262.948425,188.588654 266.348389,186.135223 
	C268.793762,184.370651 272.836121,183.212402 270.451813,178.412811 
z"/>
<path fill="#000000" opacity="1.000000" stroke="none" 
	d="
M251.402176,355.404175 
	C253.119873,359.385834 256.148224,361.603851 259.968140,363.587677 
	C252.427505,364.987885 246.535629,355.995667 248.465897,346.851501 
	C251.475861,348.998383 249.511719,352.693207 251.402176,355.404175 
z"/>
<path fill="#000000" opacity="1.000000" stroke="none" 
	d="
M262.626953,73.717880 
	C265.402557,72.186462 267.536072,69.562828 270.889343,70.985069 
	C269.561981,77.587067 267.867584,78.271118 258.726196,75.522705 
	C259.431458,73.663712 261.508545,75.110260 262.626953,73.717880 
z"/>
<path fill="#000000" opacity="1.000000" stroke="none" 
	d="
M168.409943,104.984375 
	C168.023468,111.692497 164.014725,106.128174 162.032089,107.695625 
	C162.325790,100.594032 162.925186,100.101158 169.464920,101.425690 
	C169.113556,102.515732 168.770874,103.578804 168.409943,104.984375 
z"/>
<path fill="#000000" opacity="1.000000" stroke="none" 
	d="
M314.987976,159.170807 
	C310.707703,155.299728 310.145477,151.782425 312.992828,146.475540 
	C314.033936,151.542694 310.937225,160.196869 322.994232,154.629684 
	C319.871704,158.347183 317.518005,158.560135 314.987976,159.170807 
z"/>
<path fill="#000000" opacity="1.000000" stroke="none" 
	d="
M216.128662,390.107422 
	C218.008118,388.092163 219.762222,386.375946 221.706467,384.419678 
	C223.032227,383.794403 223.638779,382.143982 225.759888,382.948212 
	C223.125259,387.200073 219.660522,390.329529 216.142197,393.505585 
	C214.768158,392.063202 215.868423,391.281494 216.128662,390.107422 
z"/>
<path fill="#000000" opacity="1.000000" stroke="none" 
	d="
M264.972534,62.986725 
	C265.749573,63.946983 266.542694,64.918358 267.408142,65.978287 
	C265.013855,67.301727 263.555420,64.567627 261.304688,65.349960 
	C259.910553,65.881493 260.928131,68.036865 259.132599,69.154785 
	C258.509430,66.774345 258.557739,64.690727 259.259277,62.686745 
	C261.133118,61.644547 262.646759,62.862648 264.626404,62.964146 
	C265.016602,63.024712 264.988678,62.997841 264.972534,62.986725 
z"/>
<path fill="#000000" opacity="1.000000" stroke="none" 
	d="
M318.347107,146.687561 
	C317.820770,149.465485 319.252441,150.636276 321.439148,151.338593 
	C319.778473,153.147781 317.969879,153.382706 316.587769,151.791489 
	C314.424316,149.300812 316.652740,146.936981 316.975159,144.467911 
	C318.577576,144.636353 318.165039,145.659378 318.347107,146.687561 
z"/>
</svg>