<svg version="1.1" id="Layer_1" xmlns="http://www.w3.org/2000/svg" xmlns:xlink="http://www.w3.org/1999/xlink" x="0px" y="0px"
	 width="100%" viewBox="0 0 512 512" enable-background="new 0 0 512 512" xml:space="preserve">
<path fill="none" opacity="1.000000" stroke="#000000" stroke-linecap="round" stroke-linejoin="round" stroke-width="2.000000"
	d="
M237.500000,28.500000 
	C245.781204,39.205460 256.406281,46.679958 268.991882,51.521118 
	C274.220551,53.532368 279.681610,52.327950 285.015503,52.837898 
	C291.952087,53.501072 299.018280,53.317486 305.995178,52.915997 
	C313.910248,52.460529 319.410614,55.125019 323.087769,62.455971 
	C328.858551,73.960823 338.166687,81.987633 349.432983,88.123055 
	C354.049774,90.637268 358.674500,93.657730 361.819794,98.767235 
	C358.535126,101.008957 354.748444,99.408890 350.800659,100.314735 
	C353.201202,107.298508 357.398895,112.891716 360.564270,118.966515 
	C364.975708,127.432823 369.816467,135.676178 374.505646,143.996826 
	C377.925537,150.065170 382.318115,155.386688 387.535400,159.959625 
	C390.597443,162.643478 394.617645,163.257538 398.499573,164.002182 
	C400.168762,164.322403 401.833344,164.666656 403.500000,165.000000 
"/>
<path fill="none" opacity="1.000000" stroke="#000000" stroke-linecap="round" stroke-linejoin="round" stroke-width="2.000000"
	d="
M315.000000,335.500000 
	C319.784210,342.920868 327.742737,347.131226 333.409058,353.579895 
	C340.034668,361.120392 348.148163,367.239960 353.585266,375.946777 
	C360.779877,387.468079 369.508789,397.922882 378.058655,408.452362 
	C385.833038,418.026672 388.470490,429.323120 388.829590,441.005249 
	C389.336151,457.484558 388.829987,474.004150 388.410370,490.497711 
	C388.265808,496.178711 387.791656,501.833344 388.500000,507.500000 
"/>
<path fill="none" opacity="1.000000" stroke="#000000" stroke-linecap="round" stroke-linejoin="round" stroke-width="2.000000"
	d="
M176.000000,185.500000 
	C172.987518,191.514511 167.820999,194.529144 161.503784,196.016052 
	C158.421371,196.741577 155.303513,197.362717 152.490814,198.984055 
	C148.637253,201.205399 147.638168,203.793579 150.050705,207.466705 
	C155.049286,215.077103 160.437622,222.430832 165.470093,230.019836 
	C170.311111,237.320099 173.444778,245.284409 175.122147,253.976425 
	C176.446060,260.836792 178.566956,267.562225 181.429123,274.031372 
	C182.911240,277.381226 185.428833,278.341431 188.492783,277.944305 
	C200.010773,276.451447 211.499176,276.519684 223.001740,277.986328 
	C223.821747,278.090881 224.798340,278.277863 225.478867,277.955414 
	C230.264740,275.687653 235.518814,274.279541 239.500000,270.500000 
"/>
<path fill="none" opacity="1.000000" stroke="#000000" stroke-linecap="round" stroke-linejoin="round" stroke-width="2.000000"
	d="
M238.000000,30.500000 
	C235.690216,40.559818 239.512634,48.999809 245.187912,56.902908 
	C243.000000,58.403027 240.716278,57.581406 239.046555,56.887909 
	C229.037842,52.730953 218.436005,53.291439 207.999512,52.506481 
	C207.336594,52.456623 206.637207,52.627197 206.004486,52.480652 
	C198.212845,50.676033 192.926483,53.387203 188.854965,60.415993 
	C185.253464,66.633392 181.036911,72.585228 175.036118,77.048561 
	C165.746170,83.958328 154.939072,86.826225 144.002197,89.508934 
	C137.410873,91.125717 130.350540,90.026871 123.928329,92.731239 
	C125.507401,98.652962 130.373947,102.404259 137.000366,102.995819 
	C139.164673,103.189041 141.333328,103.333336 143.500000,103.500000 
"/>
<path fill="none" opacity="1.000000" stroke="#000000" stroke-linecap="round" stroke-linejoin="round" stroke-width="2.000000"
	d="
M242.500000,347.500000 
	C243.333328,354.000000 244.097961,360.509888 245.030197,366.995667 
	C245.468781,370.046936 245.942566,373.195374 249.125473,375.348328 
	C259.499084,368.665131 270.414185,363.064270 280.559326,356.086243 
	C291.295044,348.701996 302.669556,342.248871 313.440186,334.912170 
	C320.584259,330.045837 320.579865,329.587677 317.919525,321.526550 
	C315.837341,315.217346 317.384613,308.823059 316.667053,302.481110 
	C315.965393,296.279755 314.644562,290.190216 314.020844,283.997894 
	C313.633484,280.152374 311.090698,280.231873 308.528168,281.084656 
	C306.878143,281.633820 305.106842,282.697449 304.065582,284.050476 
	C298.455902,291.339661 290.281067,293.500549 281.997650,295.490265 
	C271.594696,297.989075 261.133362,300.200165 250.500000,301.500000 
"/>
<path fill="none" opacity="1.000000" stroke="#000000" stroke-linecap="round" stroke-linejoin="round" stroke-width="2.000000"
	d="
M207.500000,132.500000 
	C214.032852,124.402298 212.502670,114.253136 214.522034,105.004807 
	C214.925659,103.156235 213.734772,102.691895 212.511963,101.979477 
	C207.862091,99.270462 200.489075,102.448746 196.934387,107.957657 
	C192.139282,115.388878 191.249390,123.552750 191.526260,131.999146 
	C191.977280,145.759003 197.031479,158.122101 203.561661,169.966003 
	C204.202774,171.128784 204.870285,172.174637 205.000000,173.500000 
"/>
<path fill="none" opacity="1.000000" stroke="#000000" stroke-linecap="round" stroke-linejoin="round" stroke-width="2.000000"
	d="
M225.500000,212.000000 
	C231.569626,207.784241 236.205429,202.063919 238.835617,195.434784 
	C244.242401,181.807495 244.545868,167.497879 240.332932,153.550461 
	C237.407761,143.866318 233.059311,134.567307 227.455124,126.029457 
	C224.592743,121.668732 222.199982,121.282578 218.587128,125.082832 
	C214.294174,129.598480 209.796951,133.381149 203.500000,134.500000 
"/>
<path fill="none" opacity="1.000000" stroke="#000000" stroke-linecap="round" stroke-linejoin="round" stroke-width="2.000000"
	d="
M235.500000,314.500000 
	C240.642578,318.624359 242.549042,324.014099 242.054825,330.504181 
	C241.879120,332.811432 242.211029,335.183258 242.525055,337.496613 
	C243.211472,342.553009 241.312164,346.933502 239.601837,351.537842 
	C236.437714,360.055969 235.921341,369.247833 233.703461,378.051270 
	C232.312653,383.571747 229.679489,387.221222 225.017761,390.029480 
	C213.102631,397.207306 203.521118,406.813843 195.991852,418.494751 
	C194.792480,420.355469 193.495880,422.151062 193.500000,424.500000 
"/>
<path fill="none" opacity="1.000000" stroke="#000000" stroke-linecap="round" stroke-linejoin="round" stroke-width="2.000000"
	d="
M239.500000,235.000000 
	C246.798828,233.355667 250.249222,227.942612 252.459686,221.486191 
	C253.666138,217.962357 254.044434,214.243423 254.004196,210.499954 
	C253.949615,205.419403 256.238007,202.195297 260.945496,199.888779 
	C267.729248,196.565002 272.549103,190.978348 275.459717,183.983246 
	C277.691589,178.619415 275.728912,173.472641 270.469635,171.066345 
	C267.175781,169.559341 263.804565,167.934021 260.000000,168.000000 
"/>
<path fill="none" opacity="1.000000" stroke="#000000" stroke-linecap="round" stroke-linejoin="round" stroke-width="2.000000"
	d="
M131.500000,135.500000 
	C132.722244,137.006943 131.387329,138.171921 131.023285,139.506348 
	C127.237083,153.385544 137.453857,175.032303 149.985474,176.615021 
	C157.099442,177.513504 163.839890,180.295776 170.496048,183.009705 
	C175.819626,185.180267 181.827194,184.805939 186.998810,187.502274 
	C190.171906,189.156616 193.333328,190.833328 196.500000,192.500000 
"/>
<path fill="none" opacity="1.000000" stroke="#000000" stroke-linecap="round" stroke-linejoin="round" stroke-width="3.000000"
	d="
M180.500000,253.500000 
	C190.772263,257.071411 199.612244,254.650436 205.106354,247.582672 
	C208.374802,243.378052 208.108170,239.110550 207.850143,234.721970 
	C206.666672,233.788666 205.974899,234.056305 204.976425,234.438416 
	C199.524551,236.524994 193.866913,237.489639 187.999359,237.007706 
	C183.103821,236.605606 179.520645,238.196854 178.500000,243.500000 
"/>
<path fill="none" opacity="1.000000" stroke="#000000" stroke-linecap="round" stroke-linejoin="round" stroke-width="2.000000"
	d="
M363.000000,200.000000 
	C360.525970,205.425949 356.518921,209.855576 352.860748,214.387604 
	C348.843201,219.364853 345.570984,224.778137 342.063965,230.042603 
	C335.792969,239.456100 337.767731,248.764404 346.988770,255.515350 
	C347.740570,256.065735 348.333282,256.833374 349.177124,257.677216 
	C335.402771,265.336823 322.353302,262.355469 308.829742,255.266113 
	C302.863068,263.714294 302.930725,272.921844 305.500000,282.500000 
"/>
<path fill="none" opacity="1.000000" stroke="#000000" stroke-linecap="round" stroke-linejoin="round" stroke-width="2.000000"
	d="
M195.500000,389.500000 
	C189.844238,399.454224 185.884171,410.108093 182.492737,420.997742 
	C182.383362,421.348907 182.087494,421.649658 182.011765,422.002533 
	C180.645844,428.367950 182.445221,435.081207 177.733566,441.180420 
	C173.858826,446.196136 173.450409,453.194733 171.897125,459.474548 
	C168.638168,472.650330 166.912064,485.947327 167.000000,499.500000 
"/>
<path fill="none" opacity="1.000000" stroke="#000000" stroke-linecap="round" stroke-linejoin="round" stroke-width="2.000000"
	d="
M365.000000,156.000000 
	C372.777191,164.421204 377.659973,174.523911 379.815948,185.536041 
	C382.083618,197.119049 380.761261,208.496185 372.294403,217.969498 
	C370.523285,215.502960 370.741882,212.357666 370.013062,209.496674 
	C368.282410,202.703110 366.536285,195.932800 361.000000,191.000000 
"/>
<path fill="none" opacity="1.000000" stroke="#000000" stroke-linecap="round" stroke-linejoin="round" stroke-width="2.000000"
	d="
M141.000000,104.000000 
	C138.026489,108.169220 135.199799,112.025696 130.711151,115.290321 
	C119.311783,123.581116 111.900002,135.074646 110.034882,149.504517 
	C109.931679,150.302963 110.333328,151.166672 110.500000,152.000000 
"/>
<path fill="none" opacity="1.000000" stroke="#000000" stroke-linecap="round" stroke-linejoin="round" stroke-width="2.000000"
	d="
M228.000000,420.000000 
	C218.324417,422.443970 208.524811,424.495667 199.500198,429.000397 
	C195.832321,430.831329 192.222565,432.793030 188.477539,434.449219 
	C186.461609,435.340698 184.347687,436.284454 182.000000,436.000000 
"/>
<path fill="none" opacity="1.000000" stroke="#000000" stroke-linecap="round" stroke-linejoin="round" stroke-width="2.000000"
	d="
M229.500000,307.000000 
	C223.805878,313.260254 221.620667,321.221527 219.674606,329.043457 
	C218.292847,334.597260 216.898148,340.097656 215.090118,345.529999 
	C214.374344,347.680573 214.666672,350.166656 214.500000,352.500000 
"/>
<path fill="none" opacity="1.000000" stroke="#000000" stroke-linecap="round" stroke-linejoin="round" stroke-width="2.000000"
	d="
M258.500000,163.500000 
	C260.911499,172.459671 257.029633,180.212463 252.277252,186.840286 
	C246.541626,194.839401 239.871307,202.301804 232.536133,209.039337 
	C231.557236,209.938446 230.633408,210.066910 229.500000,210.000000 
"/>
<path fill="none" opacity="1.000000" stroke="#000000" stroke-linecap="round" stroke-linejoin="round" stroke-width="2.000000"
	d="
M225.500000,278.500000 
	C232.551437,286.758240 233.564011,296.004669 229.930695,306.420685 
	C234.525940,307.109039 238.072464,304.999969 241.500000,302.500000 
"/>
<path fill="none" opacity="1.000000" stroke="#000000" stroke-linecap="round" stroke-linejoin="round" stroke-width="2.000000"
	d="
M403.500000,166.000000 
	C395.507996,168.689941 388.236664,166.107346 380.992157,163.018433 
	C374.804688,160.380219 369.458069,156.083847 363.000000,154.000000 
"/>
<path fill="none" opacity="1.000000" stroke="#000000" stroke-linecap="round" stroke-linejoin="round" stroke-width="2.000000"
	d="
M179.500000,149.500000 
	C180.127045,154.235260 178.289825,158.738449 178.350998,163.501907 
	C178.454239,171.540619 181.158127,178.200974 186.484451,184.014252 
	C187.546417,185.173294 189.361801,185.919708 189.000000,188.000000 
"/>
<path fill="none" opacity="1.000000" stroke="#000000" stroke-linecap="round" stroke-linejoin="round" stroke-width="2.000000"
	d="
M180.500000,152.000000 
	C185.996429,159.503571 192.546936,165.896149 199.883911,171.648087 
	C202.330750,173.566345 205.164398,173.481049 207.500000,175.000000 
"/>
<path fill="none" opacity="1.000000" stroke="#000000" stroke-linecap="round" stroke-linejoin="round" stroke-width="2.000000"
	d="
M274.500000,228.500015 
	C272.666687,229.166687 270.584351,229.478363 269.042175,230.560135 
	C261.501801,235.849335 253.328430,235.127411 245.000000,233.500000 
"/>
<path fill="none" opacity="1.000000" stroke="#000000" stroke-linecap="round" stroke-linejoin="round" stroke-width="2.000000"
	d="
M213.500000,355.500000 
	C213.696091,357.647064 213.548065,359.560730 211.519516,361.027008 
	C204.894608,365.815643 201.809006,372.670044 200.500000,380.500000 
"/>
<path fill="none" opacity="1.000000" stroke="#000000" stroke-linecap="round" stroke-linejoin="round" stroke-width="2.000000"
	d="
M271.000000,230.500000 
	C276.099060,238.979019 283.346558,244.593491 293.000000,247.000000 
"/>
<path fill="none" opacity="1.000000" stroke="#000000" stroke-linecap="round" stroke-linejoin="round" stroke-width="2.000000"
	d="
M134.500000,131.500000 
	C127.400932,138.970154 118.501945,144.400635 111.400215,151.905579 
	C110.024178,153.359726 108.888756,154.783844 108.000000,156.500000 
"/>
<path fill="none" opacity="1.000000" stroke="#000000" stroke-linecap="round" stroke-linejoin="round" stroke-width="2.000000"
	d="
M219.000000,172.500000 
	C217.166672,179.166672 215.333328,185.833328 213.500000,192.500000 
"/>
<path fill="none" opacity="1.000000" stroke="#000000" stroke-linecap="round" stroke-linejoin="round" stroke-width="2.000000"
	d="
M220.000000,172.500000 
	C222.498459,178.095673 222.367447,184.442642 225.000000,190.000000 
"/>
<path fill="none" opacity="1.000000" stroke="#000000" stroke-linecap="round" stroke-linejoin="round" stroke-width="4.000000"
	d="
M227.500000,160.500000 
	C223.963287,156.719101 220.352188,156.405914 215.505844,159.509140 
	C214.300003,160.281265 213.166672,161.166656 212.000000,162.000000 
"/>
</svg>